PathFileType	4	(X/Y/Z)	/home/abdul/Desktop/myosuite/custom_workspace/IK/output/S13_12_1.trc
DataRate	CameraRate	NumFrames	NumMarkers	Units	OrigDataRate	OrigDataStartFrame	OrigNumFrames
200.0	200.0	44	3	mm	200.0	938	1500
Frame#	Time	V_Shoulder			V_Elbow			V_Wrist		
		X1	Y1	Z1	X2	Y2	Z2	X3	Y3	Z3

938	4.685	-79.90979496295111	607.554779791668	338.329237595473	-180.0873553823311	469.59296466541593	28.68025372718233	-102.4933402456108	211.44852957756908	47.44481357695457
939	4.69	-79.94102600896511	607.5665070170381	338.31364129437156	-180.09149915000862	469.6578053196648	28.63053508158738	-102.53329720965623	211.49913387710188	47.344578291029286
940	4.695	-79.97248971551403	607.5788593981769	338.29820395717326	-180.09594685806854	469.7248901846901	28.580275260273687	-102.5749308588741	211.55176752718592	47.24667028146317
941	4.7	-80.00416227005336	607.5918440796469	338.2829345874802	-180.1006144632911	469.79422179880396	28.52945183690465	-102.61816700739381	211.6064231616839	47.151039004994814
942	4.705	-80.03602004730472	607.6054681456957	338.2678420628763	-180.10541725070328	469.86579626054277	28.478044986846985	-102.66292863805207	211.66308844190695	47.0576373160156
943	4.71	-80.06803962754654	607.6197386019516	338.2529351289666	-180.11027012157604	469.93960334398184	28.426037560054166	-102.70913628702476	211.72174608636726	46.96642144098529
944	4.715	-80.10019781451155	607.6346623572805	338.23822239340603	-180.1150878854292	470.01562663709376	28.373415143853286	-102.75670843240607	211.78237392345068	46.877350948966864
945	4.72	-80.13247165288207	607.6502462058293	338.22371231991707	-180.11978555488372	470.09384370226473	28.320166115478322	-102.80556188449927	211.8449449667208	46.79038871894527
946	4.725	-80.16483844537386	607.6664968092828	338.20941322229214	-180.12427864220956	470.1742262580252	28.266281684227355	-102.8556121756303	211.90942751248025	46.7055009045698
947	4.73	-80.19727576940056	607.6834206793628	338.19533325838023	-180.12848345642567	470.25674038098737	28.211755923155796	-102.9067739473567	211.97578525913048	46.62265689693197
948	4.735	-80.22976149331129	607.7010241605908	338.18148042405556	-180.13231739982717	470.34134672693074	28.156585790251867	-102.95896133301939	212.04397744778868	46.541829285960944
949	4.74	-80.26227379219483	607.7193134133421	338.16786254716783	-180.13569926283196	470.42800076992717	28.10077113907425	-103.0120883336725	212.11395902354298	46.46299382098728
950	4.745	-80.2947911632446	607.7382943972138	338.1544872814724	-180.13854951606697	470.5166530583566	28.044314718865152	-103.06606918552686	212.18568081664944	46.38612937099219
951	4.75	-80.32729244067907	607.7579728547297	338.1413621005422	-180.1407905986408	470.6072494866212	27.98722216418466	-103.12081871715512	212.25908974290314	46.31121788502521
952	4.755	-80.35975681021341	607.7783542954049	338.12849429166005	-180.14234720158433	470.6997315813379	27.929501974144518	-103.17625269482933	212.33412902234522	46.238244353237604
953	4.76	-80.39216382307838	607.7994439801902	338.11589094969355	-180.1431465454777	470.7940368007604	27.871165481350644	-103.23228815449535	212.41073841540322	46.16719676894216
954	4.765	-80.42449340958355	607.8212469063174	338.10355897095343	-180.14311865132237	470.89009884615785	27.812226810694614	-103.28884371903067	212.48885447549955	46.09806609207337
955	4.77	-80.45672589222237	607.8437677925662	338.09150504703774	-180.14219660376213	470.98784798386396	27.752702828164242	-103.34583989958293	212.56841081710618	46.03084621438437
956	4.775	-80.48884199831726	607.867011064969	338.0797356586635	-180.14031680580428	471.0872113766952	27.692613079872636	-103.40319937994431	212.6493383981699	45.965533926679186
957	4.78	-80.52082287220342	607.890980842973	338.06825706949047	-180.13741922424245	471.18811342343304	27.631979721533362	-103.4608472830807	212.7315658157828	45.902128888341366
958	4.785	-80.55265008695098	607.9156809260759	338.0570753199393	-180.13344762503698	471.29047610506154	27.570827438637046	-103.51871141910368	212.81501961392922	45.840633599382194
959	4.79	-80.58430565562502	607.9411147809504	338.0461962210086	-180.12834979796253	471.3942193364569	27.50918335761127	-103.57672251414564	212.89962460209907	45.78105337519444
960	4.795	-80.61577204208426	607.967285529075	338.0356253480948	-180.12207776989226	471.49926132223084	27.447076948271604	-103.63481441977385	212.98530418352266	45.723396324160305
961	4.8	-80.64703217131915	607.9941959348811	338.0253680348222	-180.1145880061473	471.60551891544355	27.38453991789642	-103.69292430275561	213.07198069175064	45.667673328225746
962	4.805	-80.67806943933088	608.0218483944326	338.01542936688605	-180.10584159939998	471.71290797791926	27.321606097282253	-103.75099281516418	213.15957573427792	45.613898026517205
963	4.81	-80.70886772255314	608.0502449246488	338.0058141759169	-180.09580444568394	471.82134374091754	27.25831131915962	-103.80896424499002	213.24801054188757	45.56208680204115
964	4.815	-80.73941138681886	608.0793871530823	337.9965270333728	-180.08444740712616	471.93074116493864	27.194693289371408	-103.86678664759552	213.33720632237487	45.5122587714722
965	4.82	-80.76968529587482	608.1092763082598	337.98757224446575	-180.07174646107973	472.0410152974687	27.130791451237243	-103.92441195852146	213.42708461730047	45.464435778001246
966	4.825	-80.79967481944699	608.1399132105993	337.97895384213143	-180.05768283540084	472.152081627504	27.066646843547712	-103.98179608831776	213.51756766041362	45.418642387182004
967	4.83	-80.82936584086022	608.1712982639059	337.9706755810494	-180.042243129678	472.2638564357287	27.0023019526516	-104.03889900023051	213.60857873638594	45.374905885681486
968	4.835	-80.85874476421587	608.2034314474603	337.96274093172315	-180.02541942228316	472.3762571392564	26.937800559118013	-104.09568477172883	213.70004253849714	45.333256282808456
969	4.84	-80.8877985211314	608.2363123086999	337.9551530746292	-180.0072093631785	472.48920262989213	26.873187579472454	-104.15212164099839	213.79188552392236	45.29372631466306
970	4.845	-80.91651457704637	608.2699399565035	337.9479148944442	-179.98761625247502	472.60261360491006	26.808508903522696	-104.20818203966292	213.8840362652831	45.256351450720636
971	4.85	-80.94488093709913	608.3043130550782	337.94102897436056	-179.96664910479723	472.71641288938997	26.743811227805608	-104.26384261311756	213.97642579714042	45.22116990263376
972	4.855	-80.97288615157895	608.3394298184581	337.934497590501	-179.9443226995692	472.83052574920475	26.679141885700613	-104.31908422997145	214.0689879561295	45.18822263500847
973	4.86	-81.00051932095887	608.375288005613	337.9283227064414	-179.9206576173927	472.94488019379963	26.61454867476874	-104.3738919821956	214.16165971346075	45.15755337788294
974	4.865	-81.02777010051409	608.4118849161705	337.9225059678551	-179.8956802627428	473.05940726795643	26.550079681888477	-104.42825517765938	214.25438149854315	45.12920864061076
975	4.87	-81.05462870453088	608.4492173867529	337.9170486972874	-179.86942287325877	473.1740413317875	26.48578310677066	-104.48216732681163	214.34709751251842	45.1032377268254
976	4.875	-81.08108591011201	608.487281787928	337.91195188907267	-179.8419235159563	473.28872032826087	26.421707084444623	-104.53562612532048	214.43975603053434	45.07969275013766
977	4.88	-81.10713306058342	608.5260740217719	337.9072162044066	-179.81322607073452	473.40338603760847	26.35789950731628	-104.58863343452913	214.53230969162598	45.05862865019468
978	4.885	-81.13276206850804	608.5655895200451	337.9028419665831	-179.7833802015934	473.51798431802877	26.294407847406227	-104.64119526161204	214.6247157751203	45.04010320870587
979	4.89	-81.15796541831229	608.605823242976	337.8988291564099	-179.7524413160168	473.6324653321483	26.23127897938178	-104.69332174132786	214.71693646252868	45.024177065020034
980	4.895	-81.1827361685305	608.6467696786523	337.89517740781343	-179.72047051301274	473.74678375876425	26.168559005001345	-104.74502712126029	214.8089390839455	45.01091373081689
981	4.9	-81.20706795367329	608.6884228430127	337.8918860036463	-179.6875345203337	473.860898989445	26.106293079592678	-104.79632975241688	214.9006963480254	45.00037960345678
